<svg xmlns="http://www.w3.org/2000/svg" version="1.1" xmlns:xlink="http://www.w3.org/1999/xlink" xmlns:svgjs="http://svgjs.dev/svgjs" width="2000" height="1500" viewBox="0 0 2000 1500"><rect width="2000" height="1500" fill="#000000"></rect><g transform="matrix(0.75,0,0,0.75,249.090909090909,278.98548387096776)"><svg viewBox="0 0 396 248" data-background-color="#000000" preserveAspectRatio="xMidYMid meet" height="1252" width="2000" xmlns="http://www.w3.org/2000/svg" xmlns:xlink="http://www.w3.org/1999/xlink"><g id="tight-bounds" transform="matrix(1,0,0,1,0.2400000000000091,0.4000000000000057)"><svg viewBox="0 0 395.52 247.2" height="247.2" width="395.52"><g><svg></svg></g><g><svg viewBox="0 0 395.52 247.2" height="247.2" width="395.52"><g transform="matrix(1,0,0,1,75.54432,54.68246751081399)"><svg viewBox="0 0 244.43135999999998 137.835064978372" height="137.835064978372" width="244.43135999999998"><g><svg viewBox="0 0 244.43135999999998 137.835064978372" height="137.835064978372" width="244.43135999999998"><g><svg viewBox="0 0 244.43135999999998 137.835064978372" height="137.835064978372" width="244.43135999999998"><g><svg viewBox="0 0 244.43135999999998 137.835064978372" height="137.835064978372" width="244.43135999999998"><g id="textblocktransform"><svg viewBox="0 0 244.43135999999998 137.835064978372" height="137.835064978372" width="244.43135999999998" id="textblock"><g><svg viewBox="0 0 244.43135999999998 137.835064978372" height="137.835064978372" width="244.43135999999998"><g transform="matrix(1,0,0,1,0,0)"><svg width="244.43135999999998" viewBox="2.86 -35.01 62.08 35.01" height="137.835064978372" data-palette-color="#fcfcfc"><path d="M9.84-13.99L23.85-13.99 23.85-21Q23.85-22.44 23.3-23.72 22.75-25 21.8-25.95 20.85-26.9 19.57-27.45 18.29-28 16.85-28L16.85-28Q15.41-28 14.12-27.45 12.84-26.9 11.89-25.95 10.94-25 10.39-23.72 9.84-22.44 9.84-21L9.84-21 9.84-13.99ZM30.86-21L30.86 0 23.85 0 23.85-7.01 9.84-7.01 9.84 0 2.86 0 2.86-21Q2.86-23.9 3.96-26.45 5.05-29 6.95-30.91 8.84-32.81 11.39-33.91 13.94-35.01 16.85-35.01L16.85-35.01Q19.75-35.01 22.3-33.91 24.85-32.81 26.76-30.91 28.66-29 29.76-26.45 30.86-23.9 30.86-21L30.86-21ZM43.94-7.01L43.94 0 36.94 0 36.94-35.01 43.94-35.01 43.94-17.5 56.98-35.01 64.94-35.01 53.88-20.24 64.94 0 56.98 0 49.29-14.16 43.94-7.01Z" opacity="1" transform="matrix(1,0,0,1,0,0)" fill="#ffffff" class="wordmark-text-0" data-fill-palette-color="primary" id="text-0"></path></svg></g></svg></g></svg></g></svg></g></svg></g></svg></g></svg></g><path d="M250.122 48.682L250.122 3.998 10.919 3.998 10.919 243.202 250.122 243.202 250.122 198.518 237.692 198.518 237.692 230.772 23.349 230.772 23.349 16.428 237.692 16.428 237.692 48.682Z" fill="#ffffff" stroke="transparent" data-fill-palette-color="tertiary"></path></svg></g><defs></defs></svg><rect width="395.52" height="247.2" fill="none" stroke="none" visibility="hidden"></rect></g></svg></g></svg>